<svg width="188" height="64" viewBox="0 0 188 64" fill="none" xmlns="http://www.w3.org/2000/svg">
<rect x="1" y="1" width="186" height="62" rx="5" stroke="#0061AF"/>
<path d="M38.8933 32.4594L38.8933 32.4594L38.8933 32.4664C38.895 34.0198 39.3539 35.5383 40.2128 36.8327C40.9869 37.9992 42.0551 38.9372 43.3059 39.554C42.7977 41.0615 42.0737 42.4883 41.1559 43.7897L41.1558 43.7896L41.1489 43.8C40.4525 44.8416 39.772 45.8193 38.9952 46.5446C38.2286 47.2604 37.4015 47.699 36.4097 47.7151L36.4062 47.7152C35.4177 47.738 34.7625 47.459 33.9862 47.1284L33.9541 47.1148C33.1499 46.7724 32.242 46.3958 30.8517 46.3958C29.4566 46.3958 28.5351 46.7452 27.718 47.0865C27.6624 47.1097 27.6074 47.1328 27.5531 47.1557C26.8181 47.4645 26.1873 47.7295 25.2839 47.7672C24.3778 47.8003 23.5337 47.3477 22.7043 46.5693C21.8744 45.7903 21.1236 44.7464 20.4021 43.7147C19.0069 41.6756 17.758 38.7874 17.2274 35.7789C16.6959 32.7657 16.8948 29.6935 18.314 27.2364L18.314 27.2364L18.3179 27.2294C18.968 26.0614 19.9095 25.0816 21.0507 24.3856C22.1912 23.6901 23.4922 23.3016 24.8272 23.258C25.8162 23.2383 26.7929 23.5729 27.7446 23.9488C27.8648 23.9963 27.9858 24.0449 28.1067 24.0934C28.4499 24.2313 28.7916 24.3685 29.1098 24.4777C29.5399 24.6254 29.9845 24.7432 30.4072 24.7432C30.8338 24.7432 31.3125 24.6 31.7786 24.4318C32.0349 24.3393 32.3277 24.2233 32.6279 24.1043C32.8625 24.0113 33.1016 23.9166 33.3313 23.8298C34.4423 23.4105 35.6299 23.0594 36.8075 23.183L36.8257 23.1849L36.844 23.1855C37.9865 23.2213 39.1049 23.5229 40.1104 24.0665C40.9649 24.5285 41.7179 25.1544 42.3272 25.9067C41.3569 26.5969 40.5473 27.4922 39.9574 28.5316C39.2771 29.7302 38.9111 31.0813 38.8933 32.4594Z" fill="#0061AF" stroke="#0061AF"/>
<path d="M34.7769 19.6068L34.7768 19.6067L34.7714 19.6135C34.2165 20.3037 33.5122 20.859 32.7115 21.2375C32.0559 21.5475 31.3497 21.7324 30.6291 21.7842C30.6342 21.0687 30.7542 20.3577 30.9853 19.6784C31.2683 18.8467 31.7125 18.0788 32.2924 17.4188L32.2926 17.4186C33.3663 16.1957 34.8195 15.3776 36.4106 15.0894C36.4115 16.7342 35.8368 18.3343 34.7769 19.6068Z" fill="#0061AF" stroke="#0061AF"/>
<path d="M67.0426 42.9058L66.9277 42.5661H66.569H59.2323H58.8737L58.7587 42.9057L57.1118 47.7686H55.0749L61.6631 29.5208H64.1896L70.7778 47.7686H68.688L67.0426 42.9058ZM59.5187 40.5046L59.2942 41.1654H59.9921H65.8077H66.5055L66.2811 40.5047L63.4143 32.0614L63.2991 31.7222H62.9408H62.8606H62.5024L62.3872 32.0614L59.5187 40.5046Z" fill="#0061AF" stroke="#0061AF"/>
<path d="M80.643 47.9164H80.63L80.6169 47.917C79.8184 47.9588 79.0243 47.7749 78.3255 47.3863C77.6267 46.9977 77.0515 46.4202 76.6656 45.7199L76.5231 45.4612H76.2277H76.161H75.661V45.9612V52.4119H73.7805V34.7363H75.5687V36.5704V37.0704H76.0687H76.1217H76.41L76.5544 36.821C76.9601 36.1204 77.5481 35.5429 78.2559 35.1499C78.9637 34.7569 79.7648 34.5631 80.5739 34.5892L80.582 34.5895L80.5901 34.5895C82.2281 34.5895 83.5618 35.2316 84.4951 36.3596C85.4358 37.4965 85.9994 39.1654 85.9994 41.2537C85.9994 43.349 85.4387 45.0179 84.5058 46.1529C83.5805 47.2786 82.2603 47.9164 80.643 47.9164ZM84.0387 41.2537C84.0387 39.752 83.6509 38.4564 82.9174 37.5245C82.1753 36.5817 81.1032 36.0447 79.8302 36.0447C78.5708 36.0447 77.5069 36.5964 76.77 37.541C76.0408 38.4756 75.649 39.7694 75.649 41.2537C75.649 42.75 76.0404 44.0471 76.7701 44.9822C77.5076 45.9274 78.5719 46.4748 79.8302 46.4748C81.1021 46.4748 82.1746 45.9421 82.9174 44.9986C83.6514 44.0663 84.0387 42.7674 84.0387 41.2537Z" fill="#0061AF" stroke="#0061AF"/>
<path d="M96.0857 47.9164H96.0726L96.0595 47.917C95.2611 47.9588 94.467 47.7749 93.7681 47.3863C93.0693 46.9977 92.4941 46.4202 92.1082 45.7199L91.9657 45.4612H91.6703H91.6037H91.1037V45.9612V52.4119H89.2231V34.7363H91.0113V36.5704V37.0704H91.5113H91.5643H91.8525L91.997 36.8209C92.4027 36.1204 92.9907 35.5428 93.6985 35.1499C94.4063 34.7569 95.2074 34.5631 96.0165 34.5892L96.0246 34.5895H96.0326C97.6707 34.5895 99.0045 35.2316 99.9377 36.3595C100.878 37.4965 101.442 39.1654 101.442 41.2537C101.442 43.349 100.881 45.0179 99.9485 46.1529C99.0232 47.2786 97.7029 47.9164 96.0857 47.9164ZM99.4813 40.7537H99.4666C99.3894 39.4644 99.0108 38.3513 98.36 37.5245C97.6179 36.5817 96.5458 36.0447 95.2728 36.0447C94.0134 36.0447 92.9495 36.5964 92.2126 37.5409C91.4835 38.4756 91.0916 39.7694 91.0916 41.2537C91.0916 42.75 91.483 44.0471 92.2127 44.9822C92.9502 45.9274 94.0145 46.4748 95.2728 46.4748C96.5447 46.4748 97.6172 45.9421 98.36 44.9986C99.094 44.0663 99.4813 42.7673 99.4813 41.2537V40.7537Z" fill="#0061AF" stroke="#0061AF"/>
<path d="M111.643 46.6575C110.613 45.8626 109.947 44.7606 109.751 43.4059L111.728 43.406C112.201 45.4038 114.265 46.568 116.75 46.568C118.045 46.568 119.196 46.2344 120.039 45.6332C120.887 45.027 121.425 44.1417 121.425 43.0937C121.425 42.2057 121.101 41.4668 120.409 40.8809C119.746 40.3191 118.769 39.9193 117.496 39.6065L117.494 39.606L115 39.0051C113.278 38.5893 112.085 37.9934 111.324 37.2295C110.578 36.4808 110.207 35.5303 110.207 34.3023C110.207 32.8005 110.856 31.5416 111.979 30.647C113.111 29.7459 114.745 29.2002 116.711 29.2002C118.654 29.2002 120.249 29.7448 121.361 30.6445C122.338 31.4356 122.961 32.516 123.121 33.8023H121.183C121 32.909 120.523 32.1707 119.815 31.6414C119 31.0315 117.909 30.722 116.67 30.722C115.431 30.722 114.342 31.0347 113.549 31.6196C112.745 32.212 112.262 33.0762 112.262 34.1025C112.262 34.9365 112.586 35.6208 113.268 36.162C113.918 36.6771 114.877 37.0512 116.137 37.3624L116.137 37.3626L118.258 37.8833L118.258 37.8833L118.262 37.8843C120.203 38.3431 121.498 38.9464 122.307 39.7212C123.095 40.4749 123.467 41.4351 123.467 42.7334C123.467 44.3876 122.815 45.7042 121.653 46.6191C120.479 47.5443 118.741 48.0897 116.537 48.0897C114.484 48.0897 112.813 47.5602 111.643 46.6575Z" fill="#0061AF" stroke="#0061AF"/>
<path d="M127.295 36.0164H125.754V34.7353H127.295H127.795V34.2353V31.4143H129.689V34.2353V34.7353H130.189H132.357V36.0164H130.189H129.689V36.5164V44.2527C129.689 44.9163 129.835 45.5092 130.243 45.9317C130.654 46.3578 131.238 46.5146 131.896 46.5146V46.5147L131.905 46.5146C132.051 46.512 132.198 46.5061 132.344 46.4968V47.7885C131.982 47.8354 131.618 47.8555 131.253 47.8488L131.253 47.8487H131.244C129.866 47.8487 129.041 47.5859 128.55 47.1143C128.064 46.6476 127.795 45.8698 127.795 44.56V36.5164V36.0164H127.295Z" fill="#0061AF" stroke="#0061AF"/>
<path d="M145.268 41.7527H145.28V41.2527C145.28 39.6698 144.919 38.3442 144.19 37.4026C143.449 36.4445 142.367 35.9362 141.058 35.9362C139.748 35.9362 138.667 36.4489 137.927 37.4082C137.199 38.3511 136.838 39.6763 136.838 41.2527C136.838 42.841 137.199 44.1667 137.927 45.1068C138.669 46.0636 139.751 46.5676 141.058 46.5676C142.365 46.5676 143.448 46.0636 144.19 45.1069C144.841 44.2673 145.199 43.12 145.268 41.7527ZM134.903 41.2527C134.903 39.142 135.523 37.4759 136.576 36.3422C137.626 35.2124 139.149 34.5627 141.058 34.5627C142.974 34.5627 144.498 35.2126 145.546 36.342C146.598 37.4754 147.215 39.1414 147.215 41.2527C147.215 43.3709 146.6 45.0366 145.551 46.1679C144.505 47.295 142.982 47.9426 141.058 47.9426C139.135 47.9426 137.612 47.2951 136.567 46.1679C135.517 45.0366 134.903 43.3709 134.903 41.2527Z" fill="#0061AF" stroke="#0061AF"/>
<path d="M152.468 39.973V47.7694H150.587L150.587 34.7362H152.335V36.6247V37.1247H152.835H152.901H153.292L153.387 36.7456C153.545 36.1111 153.916 35.5503 154.439 35.1576C154.962 34.7648 155.604 34.564 156.258 34.589L156.268 34.5894L156.279 34.5893C156.441 34.5888 156.603 34.5982 156.764 34.6176V36.2663C156.502 36.2267 156.237 36.2101 155.972 36.2168C155.488 36.1997 155.005 36.2863 154.556 36.471C154.102 36.658 153.694 36.9409 153.36 37.3005C153.026 37.6601 152.773 38.0877 152.62 38.5541C152.469 39.0111 152.418 39.4947 152.468 39.973Z" fill="#0061AF" stroke="#0061AF"/>
<path d="M169.921 44.6468C169.321 46.5758 167.252 47.9426 164.505 47.9426C162.58 47.9426 161.067 47.301 160.033 46.1863C158.994 45.0673 158.389 43.4187 158.389 41.3193C158.389 39.2129 158.998 37.5267 160.029 36.3737C161.055 35.2263 162.538 34.5627 164.384 34.5627C166.205 34.5627 167.645 35.1847 168.633 36.2655C169.626 37.3513 170.208 38.951 170.208 40.9847V41.4717H160.797H160.297V41.9717V42.1243C160.249 42.704 160.323 43.2873 160.514 43.8367C160.708 44.3932 161.019 44.9021 161.425 45.3294L161.787 44.9851L161.425 45.3294C161.831 45.7568 162.323 46.093 162.868 46.3155C163.404 46.534 163.98 46.6381 164.558 46.6213C165.335 46.6872 166.113 46.5041 166.78 46.0981C167.357 45.7464 167.824 45.2435 168.133 44.6468L169.921 44.6468ZM160.34 39.4585H160.31V39.9396C160.31 39.9463 160.31 39.953 160.31 39.9598L160.81 39.9591V40.4585H167.826H168.299L168.325 39.9863C168.355 39.4531 168.274 38.9195 168.088 38.4191C167.902 37.9186 167.614 37.4621 167.243 37.0781L166.883 37.4256L167.243 37.0781C166.872 36.6941 166.425 36.391 165.931 36.1877C165.44 35.9853 164.912 35.8863 164.38 35.8968C163.847 35.8945 163.319 35.9973 162.826 36.1993C162.331 36.4022 161.881 36.7011 161.502 37.0789C161.123 37.4566 160.823 37.9057 160.618 38.4001C160.478 38.7394 160.384 39.0955 160.34 39.4585Z" fill="#0061AF" stroke="#0061AF"/>
<path d="M59.6319 15.033H59.6498L59.6677 15.0317C60.1978 14.9936 60.7297 15.0737 61.2251 15.2661C61.7205 15.4586 62.1671 15.7586 62.5325 16.1444C62.8979 16.5303 63.1732 16.9925 63.3383 17.4977C63.5035 18.0028 63.5545 18.5383 63.4877 19.0656L63.4837 19.0969V19.1284C63.4837 20.5191 63.1087 21.5457 62.476 22.2212C61.8476 22.8921 60.9045 23.2815 59.6319 23.2815H56.7913V15.033H59.6319ZM57.2277 22.4736V22.9736H57.7277H59.4571C59.9577 23.0012 60.4583 22.9181 60.9231 22.73C61.3928 22.5399 61.8141 22.2476 62.1565 21.8741C62.4989 21.5007 62.7538 21.0557 62.9025 20.5713C63.0442 20.1097 63.0861 19.6234 63.0258 19.1448C63.0811 18.6685 63.0355 18.1856 62.8916 17.7276C62.7407 17.247 62.4854 16.8058 62.1439 16.4355C61.8024 16.0652 61.3832 15.775 60.9164 15.5857C60.454 15.3983 59.9563 15.3144 59.4581 15.3399H57.7277H57.2277V15.8399V22.4736Z" fill="#0061AF" stroke="#0061AF"/>
<path d="M66.1045 20.3376L66.1092 20.2895L66.1046 20.2415C66.0674 19.8522 66.1119 19.4594 66.2354 19.0883C66.3588 18.7172 66.5585 18.376 66.8215 18.0866C67.0846 17.7972 67.4052 17.5659 67.7628 17.4077C68.1205 17.2495 68.5073 17.1677 68.8983 17.1677C69.2894 17.1677 69.6762 17.2495 70.0339 17.4077C70.3915 17.5659 70.7121 17.7972 70.9752 18.0866C71.2382 18.376 71.4379 18.7172 71.5613 19.0883C71.6848 19.4594 71.7293 19.8522 71.6921 20.2415L71.6875 20.2895L71.6922 20.3376C71.7301 20.7273 71.6861 21.1206 71.563 21.4923C71.4398 21.864 71.2403 22.2059 70.9772 22.4959C70.7141 22.7858 70.3932 23.0176 70.0352 23.1762C69.6772 23.3347 69.2899 23.4167 68.8983 23.4167C68.5068 23.4167 68.1195 23.3347 67.7615 23.1762C67.4035 23.0176 67.0826 22.7858 66.8195 22.4959C66.5564 22.2059 66.3568 21.864 66.2337 21.4923C66.1106 21.1206 66.0666 20.7273 66.1045 20.3376ZM71.273 19.7891H71.2487C71.1867 19.174 71.0038 18.6341 70.6788 18.216C70.2547 17.6705 69.6335 17.3915 68.9006 17.3915C68.1658 17.3915 67.5445 17.6703 67.121 18.2166C66.7115 18.7449 66.5298 19.4674 66.5298 20.2891C66.5298 21.1161 66.7112 21.8403 67.1211 22.3689C67.5453 22.9158 68.167 23.1921 68.9006 23.1921C69.6335 23.192 70.2548 22.9132 70.6791 22.3668C71.0895 21.8382 71.273 21.1144 71.273 20.2891V19.7891Z" fill="#0061AF" stroke="#0061AF"/>
<path d="M77.4779 18.5065L76.1436 23.2815H75.4885L73.8403 17.302H74.1847L75.3445 22.2421L75.435 22.6278H75.8312H75.9342H76.3173L76.417 22.2579L77.7523 17.302H78.3075L79.6427 22.2579L79.7424 22.6278H80.1255H80.2345H80.6312L80.7214 22.2415L81.8754 17.302H82.2004L80.5586 23.2815H79.89L78.5499 18.506L78.4474 18.1411H78.0684H77.9595H77.58L77.4779 18.5065Z" fill="#0061AF" stroke="#0061AF"/>
<path d="M85.3533 19.7238V23.2822H84.9758L84.9758 17.3027H85.3018V17.9115V18.4115H85.6666C85.5786 18.5514 85.5072 18.7016 85.4542 18.8592C85.3605 19.1373 85.3262 19.4318 85.3533 19.7238ZM87.5312 17.4304C87.283 17.4203 87.0355 17.4542 86.7998 17.5303C86.8635 17.4771 86.9316 17.4288 87.0035 17.3858C87.2875 17.2163 87.6174 17.1396 87.947 17.1664L87.986 17.1695L88.025 17.1666C88.2898 17.1467 88.5557 17.1866 88.803 17.2834C89.0503 17.3802 89.2726 17.5314 89.4535 17.7258C89.6344 17.9202 89.7693 18.1528 89.8481 18.4064C89.9269 18.66 89.9476 18.9281 89.9087 19.1908L89.9034 19.2271V19.2639V23.2822H89.5259V19.6098C89.5259 18.9881 89.3924 18.4256 89.0282 18.0169C88.6562 17.5994 88.1255 17.4325 87.5312 17.4304Z" fill="#0061AF" stroke="#0061AF"/>
<path d="M93.0981 14.5774H93.4756V23.2815H93.0981V14.5774Z" fill="#0061AF" stroke="#0061AF"/>
<path d="M96.384 20.3376L96.3887 20.2896L96.3841 20.2416C96.3469 19.8523 96.3915 19.4595 96.515 19.0884C96.6384 18.7172 96.8381 18.376 97.1012 18.0866C97.3643 17.7972 97.685 17.5659 98.0427 17.4077C98.4004 17.2495 98.7872 17.1677 99.1783 17.1677C99.5695 17.1677 99.9563 17.2495 100.314 17.4077C100.672 17.5659 100.992 17.7972 101.255 18.0866C101.518 18.376 101.718 18.7172 101.842 19.0884C101.965 19.4595 102.01 19.8523 101.973 20.2416L101.968 20.2896L101.973 20.3376C102.011 20.7273 101.966 21.1207 101.843 21.4924C101.72 21.8641 101.521 22.2059 101.257 22.4959C100.994 22.7859 100.673 23.0176 100.315 23.1762C99.9572 23.3348 99.5699 23.4167 99.1783 23.4167C98.7867 23.4167 98.3994 23.3348 98.0414 23.1762C97.6833 23.0176 97.3624 22.7859 97.0993 22.4959C96.8361 22.2059 96.6365 21.8641 96.5134 21.4924C96.3902 21.1207 96.3461 20.7273 96.384 20.3376ZM101.553 19.7892H101.528C101.466 19.1741 101.283 18.6342 100.958 18.2161C100.534 17.6706 99.9131 17.3916 99.1802 17.3916C98.4454 17.3916 97.8241 17.6704 97.4006 18.2167C96.9911 18.745 96.8093 19.4675 96.8093 20.2892C96.8093 21.1162 96.9908 21.8404 97.4007 22.369C97.8248 22.9159 98.4466 23.1921 99.1802 23.1921C99.9131 23.1921 100.534 22.9133 100.959 22.3669C101.369 21.8383 101.553 21.1145 101.553 20.2892V19.7892Z" fill="#0061AF" stroke="#0061AF"/>
<path d="M105.212 18.1355H104.874C105.201 17.5681 105.934 17.1677 107.044 17.1677C107.842 17.1677 108.395 17.3665 108.742 17.6659C109.078 17.9565 109.281 18.3938 109.281 19.0132V23.282H108.955V22.8011V22.3011H108.546C108.596 22.227 108.642 22.1497 108.682 22.0695C108.812 21.8128 108.889 21.5326 108.909 21.2455L108.91 21.2287V21.2117V20.6282V20.0952L108.378 20.1293L106.673 20.2382L106.672 20.2383C106.156 20.2729 105.694 20.3809 105.352 20.6296C104.977 20.9028 104.808 21.2987 104.808 21.7438C104.808 22.2211 105.023 22.6169 105.377 22.8783C105.71 23.1242 106.137 23.2335 106.578 23.2374C106.78 23.2555 106.984 23.2446 107.182 23.2055C106.901 23.3459 106.588 23.4121 106.273 23.3975L106.235 23.3958L106.198 23.3996C105.975 23.4229 105.749 23.3991 105.535 23.3296C105.321 23.2602 105.124 23.1468 104.957 22.9967L104.623 23.3687L104.957 22.9967C104.79 22.8466 104.656 22.6631 104.564 22.458C104.472 22.2532 104.424 22.0315 104.423 21.8071C104.424 21.3191 104.598 20.9734 104.91 20.7252C105.241 20.4614 105.776 20.2717 106.549 20.2237C106.549 20.2237 106.55 20.2236 106.55 20.2236L108.438 20.1148L108.91 20.0876V19.6156V19.0132C108.91 18.5269 108.743 18.0831 108.365 17.7732C108.003 17.4767 107.516 17.3597 106.981 17.3597C106.263 17.3597 105.565 17.5861 105.212 18.1355Z" fill="#0061AF" stroke="#0061AF"/>
<path d="M114.489 17.1862H114.5L114.512 17.1857C114.853 17.17 115.192 17.2517 115.489 17.4214C115.564 17.4647 115.636 17.5133 115.704 17.5666C115.451 17.4724 115.174 17.4236 114.879 17.4236C114.158 17.4236 113.542 17.7096 113.119 18.2461C112.708 18.7685 112.514 19.4813 112.514 20.2887V20.7887H112.54C112.605 21.3934 112.792 21.9255 113.116 22.3384C113.539 22.8768 114.156 23.1599 114.879 23.1599C115.189 23.1599 115.479 23.1071 115.743 23.0047C115.67 23.0605 115.593 23.1112 115.512 23.1562C115.205 23.3266 114.858 23.4098 114.507 23.3969L114.498 23.3965H114.489C113.745 23.3966 113.167 23.11 112.764 22.6086C112.352 22.0955 112.092 21.315 112.092 20.2887C112.092 19.2667 112.354 18.4873 112.768 17.9743C113.173 17.4723 113.751 17.1862 114.489 17.1862ZM117.258 20.2948C117.258 19.5682 117.095 18.9159 116.757 18.4107H117.232V17.9107V14.5774H117.609V23.2815H117.289V22.6788V22.1788H116.789H116.76C117.097 21.6746 117.258 21.0228 117.258 20.2948Z" fill="#0061AF" stroke="#0061AF"/>
<path d="M124.305 20.3376L124.31 20.2895L124.305 20.2415C124.268 19.8522 124.312 19.4594 124.436 19.0883C124.559 18.7172 124.759 18.376 125.022 18.0866C125.285 17.7972 125.606 17.5659 125.963 17.4077C126.321 17.2495 126.708 17.1677 127.099 17.1677C127.49 17.1677 127.877 17.2495 128.234 17.4077C128.592 17.5659 128.913 17.7972 129.176 18.0866C129.439 18.376 129.638 18.7172 129.762 19.0883C129.885 19.4594 129.93 19.8522 129.893 20.2415L129.888 20.2895L129.893 20.3376C129.931 20.7273 129.887 21.1206 129.763 21.4923C129.64 21.864 129.441 22.2059 129.178 22.4959C128.915 22.7858 128.594 23.0176 128.236 23.1762C127.878 23.3347 127.49 23.4167 127.099 23.4167C126.707 23.4167 126.32 23.3347 125.962 23.1762C125.604 23.0176 125.283 22.7858 125.02 22.4959C124.757 22.2059 124.557 21.864 124.434 21.4923C124.311 21.1206 124.267 20.7273 124.305 20.3376ZM129.473 20.2891C129.473 19.4665 129.29 18.744 128.879 18.216C128.455 17.6705 127.834 17.3915 127.101 17.3915C126.366 17.3915 125.745 17.6703 125.321 18.2166C124.912 18.7449 124.73 19.4674 124.73 20.2891C124.73 21.1161 124.912 21.8403 125.322 22.3689C125.746 22.9158 126.367 23.1921 127.101 23.1921C127.834 23.192 128.455 22.9132 128.879 22.3668C129.29 21.8382 129.473 21.1144 129.473 20.2891Z" fill="#0061AF" stroke="#0061AF"/>
<path d="M133.116 19.7238V23.2822H132.738V17.3027H133.064V17.9115V18.4115H133.429C133.341 18.5514 133.27 18.7016 133.217 18.8592C133.123 19.1373 133.089 19.4319 133.116 19.7238ZM135.294 17.4304C135.045 17.4203 134.798 17.4542 134.562 17.5303C134.626 17.4771 134.694 17.4288 134.766 17.3858C135.05 17.2163 135.38 17.1396 135.709 17.1664L135.748 17.1695L135.787 17.1666C136.052 17.1467 136.318 17.1866 136.565 17.2834C136.813 17.3802 137.035 17.5314 137.216 17.7258C137.397 17.9202 137.532 18.1528 137.611 18.4064L138.088 18.258L137.611 18.4064C137.689 18.66 137.71 18.9281 137.671 19.1908L137.666 19.2271V19.2639V23.2822H137.288V19.6098C137.288 18.9881 137.155 18.4256 136.791 18.0169C136.419 17.5994 135.888 17.4325 135.294 17.4304Z" fill="#0061AF" stroke="#0061AF"/>
<path d="M144.569 17.4936H143.961V17.3334H144.569H145.069V16.8334V15.564H145.448V16.8334V17.3334H145.948H146.96V17.4937H145.948H145.448V17.9937V21.5826C145.448 22.002 145.532 22.4182 145.82 22.7247C146.114 23.0383 146.524 23.1338 146.935 23.1338L146.936 23.1338C146.944 23.1338 146.952 23.1337 146.96 23.1337V23.3091C146.876 23.3153 146.792 23.3188 146.708 23.3198C145.981 23.3194 145.6 23.1869 145.396 23.0069C145.207 22.8411 145.069 22.5439 145.069 21.9352V17.9936V17.4936H144.569Z" fill="#0061AF" stroke="#0061AF"/>
<path d="M149.843 14.5774H150.208V17.9236V18.4236H150.543C150.461 18.5533 150.393 18.6919 150.341 18.837C150.238 19.1215 150.197 19.4245 150.22 19.7259V23.2815H149.843L149.843 14.5774ZM152.498 17.4358C152.25 17.4179 152.001 17.4435 151.763 17.5112C151.818 17.4684 151.876 17.429 151.937 17.3933C152.229 17.2217 152.567 17.1443 152.905 17.1717L152.939 17.1744L152.972 17.1726C153.237 17.1582 153.501 17.2024 153.746 17.3019C153.992 17.4014 154.212 17.5538 154.392 17.7483C154.571 17.9428 154.706 18.1745 154.786 18.4269C154.866 18.6794 154.889 18.9463 154.853 19.2088L154.849 19.2419V19.2753V23.2815H154.47V19.6151C154.47 18.9888 154.325 18.4295 153.961 18.0236C153.593 17.6128 153.074 17.4397 152.498 17.4358Z" fill="#0061AF" stroke="#0061AF"/>
<path d="M159.448 23.0525L159.646 22.593L159.448 23.0525C159.739 23.1771 160.051 23.2417 160.367 23.2425C160.784 23.2862 161.205 23.2082 161.58 23.0175C161.872 22.8684 162.126 22.6556 162.323 22.3963L162.6 22.3963C162.431 22.6489 162.213 22.868 161.957 23.0393C161.502 23.3433 160.954 23.4775 160.41 23.4185L160.376 23.4148L160.342 23.4157C159.955 23.426 159.57 23.3518 159.215 23.1983C158.859 23.0449 158.541 22.8159 158.282 22.5272C158.024 22.2385 157.831 21.897 157.718 21.5265C157.605 21.1559 157.574 20.7652 157.627 20.3814L157.636 20.314L157.627 20.2467C157.575 19.8606 157.607 19.4679 157.72 19.0952C157.834 18.7225 158.026 18.3785 158.283 18.0864C158.541 17.7943 158.859 17.5611 159.214 17.4024C159.57 17.2437 159.956 17.1633 160.345 17.1666V17.1666H160.35C161.201 17.1666 161.834 17.4531 162.26 17.9352C162.691 18.422 162.96 19.1648 162.963 20.1657H158.535H158.035V20.6657V20.7232C158.011 21.0414 158.052 21.3612 158.157 21.663C158.263 21.9718 158.433 22.255 158.656 22.4942C158.878 22.7335 159.148 22.9237 159.448 23.0525ZM162.06 20.147H162.524L162.559 19.684C162.581 19.3802 162.54 19.075 162.437 18.7882C162.335 18.5013 162.174 18.239 161.964 18.0181C161.754 17.7973 161.5 17.6228 161.219 17.5059C160.94 17.3901 160.641 17.3332 160.339 17.3389C160.037 17.3363 159.738 17.3935 159.458 17.5074C159.176 17.6224 158.919 17.7927 158.703 18.0084C158.488 18.2241 158.318 18.4808 158.203 18.7634C158.088 19.0459 158.031 19.3486 158.035 19.6535L158.535 19.647V20.147H158.535H159.041H162.06Z" fill="#0061AF" stroke="#0061AF"/>
</svg>
