<svg width="30" height="30" viewBox="0 0 30 30" fill="none" xmlns="http://www.w3.org/2000/svg">
<path d="M23.9062 28.125H10.7812C9.66237 28.125 8.58931 27.6805 7.79814 26.8894C7.00697 26.0982 6.5625 25.0251 6.5625 23.9062V10.7812C6.5625 9.66237 7.00697 8.58931 7.79814 7.79814C8.58931 7.00697 9.66237 6.5625 10.7812 6.5625H23.9062C25.0251 6.5625 26.0982 7.00697 26.8894 7.79814C27.6805 8.58931 28.125 9.66237 28.125 10.7812V23.9062C28.125 25.0251 27.6805 26.0982 26.8894 26.8894C26.0982 27.6805 25.0251 28.125 23.9062 28.125Z" fill="#0061AF"/>
<path d="M9.375 4.6875H23.1961C22.9044 3.86557 22.3656 3.15403 21.6535 2.65048C20.9414 2.14693 20.0909 1.87605 19.2188 1.875H6.09375C4.97487 1.875 3.90181 2.31947 3.11064 3.11064C2.31947 3.90181 1.875 4.97487 1.875 6.09375V19.2188C1.87605 20.0909 2.14693 20.9414 2.65048 21.6535C3.15403 22.3656 3.86557 22.9044 4.6875 23.1961V9.375C4.6875 8.1318 5.18136 6.93951 6.06044 6.06044C6.93951 5.18136 8.1318 4.6875 9.375 4.6875Z" fill="#0061AF"/>
</svg>
