<svg width="210" height="64" viewBox="0 0 210 64" fill="none" xmlns="http://www.w3.org/2000/svg">
<path d="M201.502 63H8.23086C3.97889 63 0.5 59.5125 0.5 55.25V8.75C0.5 4.4875 3.97889 1 8.23086 1H201.502C205.754 1 209.233 4.4875 209.233 8.75V55.25C209.233 59.5125 205.754 63 201.502 63Z" stroke="#0061AF"/>
<path d="M73.8197 16.8717C73.8197 18.1737 73.4332 19.2122 72.6601 19.9717C71.7942 20.8862 70.6501 21.3512 69.2585 21.3512C67.9133 21.3512 66.7846 20.8862 65.8415 19.9562C64.8983 19.0262 64.4344 17.8637 64.4344 16.4997C64.4344 15.1202 64.8983 13.9732 65.8415 13.0432C66.7846 12.1132 67.9133 11.6482 69.2585 11.6482C69.9234 11.6482 70.5573 11.7722 71.1603 12.0357C71.7633 12.2992 72.2426 12.6402 72.6137 13.0742L71.7942 13.8957C71.1758 13.1672 70.3408 12.7952 69.2585 12.7952C68.2844 12.7952 67.434 13.1362 66.7228 13.8337C66.0115 14.5157 65.6559 15.4147 65.6559 16.5152C65.6559 17.6157 66.0115 18.5147 66.7228 19.1967C67.434 19.8787 68.2844 20.2352 69.2585 20.2352C70.2944 20.2352 71.1603 19.8942 71.8561 19.1967C72.3045 18.7472 72.5673 18.1117 72.6292 17.3057H69.2585V16.1742H73.7579C73.7888 16.4222 73.8197 16.6547 73.8197 16.8717Z" fill="#0061AF" stroke="#0061AF" stroke-width="0.2" stroke-miterlimit="10"/>
<path d="M80.9471 12.9981H76.7263V15.9431H80.5297V17.0591H76.7263V20.0041H80.9471V21.1511H75.5358V11.8511H80.9471V12.9981Z" fill="#0061AF" stroke="#0061AF" stroke-width="0.2" stroke-miterlimit="10"/>
<path d="M85.972 21.1511H84.7814V12.9981H82.1838V11.8511H88.5541V12.9981H85.9565V21.1511H85.972Z" fill="#0061AF" stroke="#0061AF" stroke-width="0.2" stroke-miterlimit="10"/>
<path d="M93.1791 21.1511V11.8511H94.3696V21.1511H93.1791Z" fill="#0061AF" stroke="#0061AF" stroke-width="0.2" stroke-miterlimit="10"/>
<path d="M99.6556 21.1511H98.465V12.9981H95.8674V11.8511H102.238V12.9981H99.6401V21.1511H99.6556Z" fill="#0061AF" stroke="#0061AF" stroke-width="0.2" stroke-miterlimit="10"/>
<path d="M114.315 19.9407C113.403 20.8862 112.274 21.3512 110.913 21.3512C109.553 21.3512 108.424 20.8862 107.512 19.9407C106.6 18.9952 106.151 17.8482 106.151 16.4997C106.151 15.1512 106.6 13.9887 107.512 13.0587C108.424 12.1132 109.553 11.6482 110.913 11.6482C112.259 11.6482 113.387 12.1132 114.315 13.0587C115.227 14.0042 115.691 15.1512 115.691 16.4997C115.676 17.8637 115.227 19.0107 114.315 19.9407ZM108.393 19.1657C109.073 19.8632 109.924 20.2042 110.913 20.2042C111.903 20.2042 112.753 19.8632 113.434 19.1657C114.114 18.4682 114.47 17.5847 114.47 16.4997C114.47 15.4147 114.129 14.5312 113.434 13.8337C112.753 13.1362 111.903 12.7797 110.913 12.7797C109.924 12.7797 109.073 13.1207 108.393 13.8182C107.713 14.5312 107.357 15.4147 107.357 16.4997C107.357 17.5847 107.713 18.4682 108.393 19.1657Z" fill="#0061AF" stroke="#0061AF" stroke-width="0.2" stroke-miterlimit="10"/>
<path d="M117.362 21.1511V11.8511H118.815L123.33 19.0896H123.376L123.33 17.2916V11.8511H124.52V21.1511H123.283L118.568 13.5716H118.521L118.568 15.3696V21.1511H117.362Z" fill="#0061AF" stroke="#0061AF" stroke-width="0.2" stroke-miterlimit="10"/>
<mask id="path-9-inside-1_4661_4963" fill="white">
<path d="M105.854 34.7118C102.221 34.7118 99.2519 37.4863 99.2519 41.2993C99.2519 45.0968 102.221 47.8868 105.854 47.8868C109.488 47.8868 112.456 45.0968 112.456 41.2993C112.456 37.4863 109.488 34.7118 105.854 34.7118ZM105.854 45.2983C103.859 45.2983 102.143 43.6553 102.143 41.2993C102.143 38.9278 103.859 37.3003 105.854 37.3003C107.849 37.3003 109.565 38.9278 109.565 41.2993C109.565 43.6553 107.833 45.2983 105.854 45.2983ZM91.4437 34.7118C87.8102 34.7118 84.8416 37.4863 84.8416 41.2993C84.8416 45.0968 87.8102 47.8868 91.4437 47.8868C95.0772 47.8868 98.0459 45.0968 98.0459 41.2993C98.0459 37.4863 95.0772 34.7118 91.4437 34.7118ZM91.4437 45.2983C89.4491 45.2983 87.7329 43.6553 87.7329 41.2993C87.7329 38.9278 89.4491 37.3003 91.4437 37.3003C93.4383 37.3003 95.1545 38.9278 95.1545 41.2993C95.1545 43.6553 93.4383 45.2983 91.4437 45.2983ZM74.3121 36.7423V39.5323H80.9916C80.7906 41.0978 80.2649 42.2603 79.4763 43.0508C78.5022 44.0273 76.987 45.0968 74.3276 45.0968C70.2148 45.0968 66.9987 41.7798 66.9987 37.6568C66.9987 33.5338 70.2148 30.2168 74.3276 30.2168C76.5386 30.2168 78.1621 31.0848 79.3526 32.2163L81.3163 30.2478C79.6464 28.6513 77.4354 27.4268 74.3121 27.4268C68.684 27.4268 63.9528 32.0148 63.9528 37.6723C63.9528 43.3143 68.684 47.9178 74.3121 47.9178C77.3581 47.9178 79.6464 46.9258 81.44 45.0503C83.2799 43.2058 83.852 40.6018 83.852 38.5093C83.852 37.8583 83.8056 37.2538 83.6974 36.7578H74.3121V36.7423ZM144.369 38.9123C143.828 37.4398 142.158 34.7118 138.741 34.7118C135.355 34.7118 132.541 37.3778 132.541 41.2993C132.541 44.9883 135.324 47.8868 139.066 47.8868C142.081 47.8868 143.828 46.0423 144.539 44.9728L142.297 43.4693C141.555 44.5698 140.535 45.2983 139.066 45.2983C137.597 45.2983 136.546 44.6163 135.881 43.2988L144.678 39.6563L144.369 38.9123ZM135.401 41.1133C135.324 38.5713 137.365 37.2693 138.834 37.2693C139.978 37.2693 140.952 37.8428 141.277 38.6643L135.401 41.1133ZM128.258 47.4993H131.149V28.1243H128.258V47.4993ZM123.527 36.1843H123.419C122.769 35.4093 121.532 34.7118 119.955 34.7118C116.662 34.7118 113.647 37.6103 113.647 41.3303C113.647 45.0193 116.662 47.9023 119.955 47.9023C121.517 47.9023 122.769 47.2048 123.419 46.3988H123.511V47.3443C123.511 49.8708 122.166 51.2193 120.002 51.2193C118.239 51.2193 117.141 49.9483 116.693 48.8788L114.172 49.9328C114.899 51.6843 116.816 53.8233 120.002 53.8233C123.388 53.8233 126.248 51.8238 126.248 46.9568V35.1148H123.511V36.1843H123.527ZM120.203 45.2983C118.208 45.2983 116.538 43.6243 116.538 41.3303C116.538 39.0053 118.208 37.3158 120.203 37.3158C122.166 37.3158 123.712 39.0208 123.712 41.3303C123.728 43.6243 122.182 45.2983 120.203 45.2983ZM157.914 28.1243H151.002V47.4993H153.894V40.1523H157.929C161.13 40.1523 164.268 37.8273 164.268 34.1383C164.268 30.4493 161.099 28.1243 157.914 28.1243ZM157.976 37.4553H153.878V30.8058H157.976C160.14 30.8058 161.362 32.6038 161.362 34.1228C161.362 35.6418 160.14 37.4553 157.976 37.4553ZM175.818 34.6808C173.731 34.6808 171.566 35.6108 170.67 37.6413L173.236 38.7108C173.777 37.6413 174.798 37.2848 175.865 37.2848C177.365 37.2848 178.88 38.1838 178.895 39.7803V39.9818C178.37 39.6873 177.256 39.2378 175.88 39.2378C173.113 39.2378 170.314 40.7568 170.314 43.5933C170.314 46.1818 172.571 47.8558 175.107 47.8558C177.04 47.8558 178.122 46.9878 178.787 45.9648H178.88V47.4683H181.663V40.0438C181.678 36.6028 179.112 34.6808 175.818 34.6808ZM175.463 45.2983C174.52 45.2983 173.205 44.8178 173.205 43.6553C173.205 42.1673 174.844 41.5938 176.267 41.5938C177.535 41.5938 178.138 41.8728 178.895 42.2448C178.679 44.0273 177.133 45.2983 175.463 45.2983ZM191.821 35.0993L188.512 43.5003H188.42L184.987 35.0993H181.879L187.028 46.8483L184.09 53.3738H187.105L195.037 35.0993H191.821ZM165.846 47.4993H168.737V28.1243H165.846V47.4993Z"/>
</mask>
<path d="M105.854 34.7118C102.221 34.7118 99.2519 37.4863 99.2519 41.2993C99.2519 45.0968 102.221 47.8868 105.854 47.8868C109.488 47.8868 112.456 45.0968 112.456 41.2993C112.456 37.4863 109.488 34.7118 105.854 34.7118ZM105.854 45.2983C103.859 45.2983 102.143 43.6553 102.143 41.2993C102.143 38.9278 103.859 37.3003 105.854 37.3003C107.849 37.3003 109.565 38.9278 109.565 41.2993C109.565 43.6553 107.833 45.2983 105.854 45.2983ZM91.4437 34.7118C87.8102 34.7118 84.8416 37.4863 84.8416 41.2993C84.8416 45.0968 87.8102 47.8868 91.4437 47.8868C95.0772 47.8868 98.0459 45.0968 98.0459 41.2993C98.0459 37.4863 95.0772 34.7118 91.4437 34.7118ZM91.4437 45.2983C89.4491 45.2983 87.7329 43.6553 87.7329 41.2993C87.7329 38.9278 89.4491 37.3003 91.4437 37.3003C93.4383 37.3003 95.1545 38.9278 95.1545 41.2993C95.1545 43.6553 93.4383 45.2983 91.4437 45.2983ZM74.3121 36.7423V39.5323H80.9916C80.7906 41.0978 80.2649 42.2603 79.4763 43.0508C78.5022 44.0273 76.987 45.0968 74.3276 45.0968C70.2148 45.0968 66.9987 41.7798 66.9987 37.6568C66.9987 33.5338 70.2148 30.2168 74.3276 30.2168C76.5386 30.2168 78.1621 31.0848 79.3526 32.2163L81.3163 30.2478C79.6464 28.6513 77.4354 27.4268 74.3121 27.4268C68.684 27.4268 63.9528 32.0148 63.9528 37.6723C63.9528 43.3143 68.684 47.9178 74.3121 47.9178C77.3581 47.9178 79.6464 46.9258 81.44 45.0503C83.2799 43.2058 83.852 40.6018 83.852 38.5093C83.852 37.8583 83.8056 37.2538 83.6974 36.7578H74.3121V36.7423ZM144.369 38.9123C143.828 37.4398 142.158 34.7118 138.741 34.7118C135.355 34.7118 132.541 37.3778 132.541 41.2993C132.541 44.9883 135.324 47.8868 139.066 47.8868C142.081 47.8868 143.828 46.0423 144.539 44.9728L142.297 43.4693C141.555 44.5698 140.535 45.2983 139.066 45.2983C137.597 45.2983 136.546 44.6163 135.881 43.2988L144.678 39.6563L144.369 38.9123ZM135.401 41.1133C135.324 38.5713 137.365 37.2693 138.834 37.2693C139.978 37.2693 140.952 37.8428 141.277 38.6643L135.401 41.1133ZM128.258 47.4993H131.149V28.1243H128.258V47.4993ZM123.527 36.1843H123.419C122.769 35.4093 121.532 34.7118 119.955 34.7118C116.662 34.7118 113.647 37.6103 113.647 41.3303C113.647 45.0193 116.662 47.9023 119.955 47.9023C121.517 47.9023 122.769 47.2048 123.419 46.3988H123.511V47.3443C123.511 49.8708 122.166 51.2193 120.002 51.2193C118.239 51.2193 117.141 49.9483 116.693 48.8788L114.172 49.9328C114.899 51.6843 116.816 53.8233 120.002 53.8233C123.388 53.8233 126.248 51.8238 126.248 46.9568V35.1148H123.511V36.1843H123.527ZM120.203 45.2983C118.208 45.2983 116.538 43.6243 116.538 41.3303C116.538 39.0053 118.208 37.3158 120.203 37.3158C122.166 37.3158 123.712 39.0208 123.712 41.3303C123.728 43.6243 122.182 45.2983 120.203 45.2983ZM157.914 28.1243H151.002V47.4993H153.894V40.1523H157.929C161.13 40.1523 164.268 37.8273 164.268 34.1383C164.268 30.4493 161.099 28.1243 157.914 28.1243ZM157.976 37.4553H153.878V30.8058H157.976C160.14 30.8058 161.362 32.6038 161.362 34.1228C161.362 35.6418 160.14 37.4553 157.976 37.4553ZM175.818 34.6808C173.731 34.6808 171.566 35.6108 170.67 37.6413L173.236 38.7108C173.777 37.6413 174.798 37.2848 175.865 37.2848C177.365 37.2848 178.88 38.1838 178.895 39.7803V39.9818C178.37 39.6873 177.256 39.2378 175.88 39.2378C173.113 39.2378 170.314 40.7568 170.314 43.5933C170.314 46.1818 172.571 47.8558 175.107 47.8558C177.04 47.8558 178.122 46.9878 178.787 45.9648H178.88V47.4683H181.663V40.0438C181.678 36.6028 179.112 34.6808 175.818 34.6808ZM175.463 45.2983C174.52 45.2983 173.205 44.8178 173.205 43.6553C173.205 42.1673 174.844 41.5938 176.267 41.5938C177.535 41.5938 178.138 41.8728 178.895 42.2448C178.679 44.0273 177.133 45.2983 175.463 45.2983ZM191.821 35.0993L188.512 43.5003H188.42L184.987 35.0993H181.879L187.028 46.8483L184.09 53.3738H187.105L195.037 35.0993H191.821ZM165.846 47.4993H168.737V28.1243H165.846V47.4993Z" fill="#0061AF" stroke="#0061AF" stroke-width="2" mask="url(#path-9-inside-1_4661_4963)"/>
<path d="M17.2397 14.6446L17.2397 14.6446L34.6178 31.5044C34.6179 31.5045 34.6179 31.5045 34.618 31.5046C34.6537 31.5393 34.6822 31.5808 34.7019 31.6268C34.7214 31.6726 34.7318 31.7219 34.7323 31.7717C34.7323 31.8223 34.7225 31.8723 34.7034 31.9189C34.6842 31.9658 34.656 32.0083 34.6206 32.0441C34.6204 32.0443 34.6203 32.0445 34.6201 32.0446L17.5141 49.1931C17.5139 49.1934 17.5136 49.1936 17.5134 49.1939C17.4736 49.2331 17.4257 49.263 17.3732 49.2814C17.3204 49.3 17.2641 49.3065 17.2085 49.3006C17.1529 49.2947 17.0993 49.2765 17.0514 49.2472L16.7903 49.6735L17.0514 49.2472C17.0037 49.218 16.963 49.1785 16.9322 49.1315C16.62 48.6496 16.4636 48.1247 16.4636 47.5637V15.7179C16.4665 15.4059 16.5199 15.0965 16.6217 14.8017L16.6218 14.8017L16.6236 14.7963C16.6437 14.7357 16.6789 14.6813 16.7256 14.6382C16.7723 14.595 16.829 14.5646 16.8904 14.5495C16.9519 14.5345 17.016 14.5353 17.0771 14.5519C17.1381 14.5684 17.1941 14.6003 17.2397 14.6446Z" fill="#0061AF" stroke="#0061AF"/>
<path d="M36.5741 29.5678L36.5719 29.5657L20.2965 13.7746C20.2965 13.7745 20.2964 13.7745 20.2963 13.7744C20.2317 13.7114 20.1913 13.6271 20.1828 13.5367C20.1744 13.4466 20.1981 13.3567 20.2494 13.2828C20.3019 13.2098 20.3782 13.158 20.4648 13.1363C20.5493 13.1151 20.6384 13.1239 20.7172 13.1611L41.4309 24.5325C41.4313 24.5327 41.4316 24.5329 41.432 24.5331C41.4826 24.5615 41.5261 24.6012 41.5591 24.6493C41.5923 24.6978 41.614 24.7533 41.6223 24.8117C41.6306 24.8701 41.6253 24.9296 41.6069 24.9856C41.5885 25.0412 41.5577 25.0917 41.5169 25.1333C41.5167 25.1335 41.5164 25.1338 41.5162 25.134L37.0985 29.5626L37.0971 29.564C37.0279 29.634 36.9341 29.6734 36.8363 29.6741C36.7386 29.6748 36.6443 29.6367 36.5741 29.5678Z" fill="#0061AF" stroke="#0061AF"/>
<path d="M49.7494 29.0976L49.7495 29.0977C50.6918 29.6149 51.2509 30.5609 51.2509 31.6387C51.2509 32.7165 50.6918 33.6625 49.7495 34.1797C49.7495 34.1797 49.7495 34.1797 49.7495 34.1797L44.6176 36.9967C44.6174 36.9969 44.6172 36.997 44.617 36.9971C44.5464 37.0353 44.4655 37.0501 44.3861 37.0394C44.3068 37.0287 44.2327 36.9932 44.1745 36.9375C44.1743 36.9373 44.1741 36.9371 44.1738 36.9368L39.0895 32.0031C39.0895 32.003 39.0894 32.003 39.0894 32.0029C39.0537 31.9682 39.0252 31.9267 39.0056 31.8807C38.9859 31.8347 38.9755 31.7851 38.9751 31.735C38.9747 31.6848 38.9842 31.6351 39.0031 31.5887L38.5401 31.4L39.0031 31.5887C39.022 31.5424 39.0498 31.5004 39.0848 31.4651C39.0849 31.4651 39.085 31.465 39.085 31.4649L44.1851 26.3522C44.1853 26.352 44.1855 26.3518 44.1857 26.3516C44.2437 26.2942 44.3185 26.2571 44.3988 26.2455C44.4792 26.234 44.5611 26.2486 44.6327 26.2873C44.6329 26.2875 44.6332 26.2876 44.6334 26.2877L49.7494 29.0976Z" fill="#0061AF" stroke="#0061AF"/>
<path d="M22.0378 48.5552L22.0377 48.5551C21.9716 48.6181 21.9307 48.7035 21.9232 48.7952C21.9156 48.8868 21.9418 48.9779 21.9967 49.0511C22.0515 49.1243 22.1311 49.1745 22.22 49.1926C22.3089 49.2106 22.4014 49.1954 22.48 49.1495L22.4914 49.1429L22.4914 49.143L41.4014 38.7628L41.4023 38.7623C41.4538 38.7341 41.498 38.6942 41.5314 38.6456C41.5648 38.5969 41.5863 38.541 41.5942 38.4823C41.602 38.4236 41.5959 38.3639 41.5765 38.308C41.557 38.2522 41.5247 38.2018 41.4824 38.161L41.4812 38.1598L37.1337 33.9437L22.0378 48.5552ZM22.0378 48.5552L22.0464 48.5466M22.0378 48.5552L22.0464 48.5466M22.0464 48.5466L36.6086 33.9482C36.6783 33.8784 36.7723 33.839 36.8702 33.8381C36.9681 33.8373 37.0627 33.875 37.1335 33.9435L22.0464 48.5466Z" fill="#0061AF" stroke="#0061AF"/>
</svg>
