<svg width="37" height="37" viewBox="0 0 37 37" fill="none" xmlns="http://www.w3.org/2000/svg">
<path d="M6.16666 27.75V27.4416C6.16666 24.8514 6.16666 23.5563 6.67076 22.5669C7.11417 21.6967 7.82171 20.9892 8.69196 20.5457C9.6813 20.0416 10.9764 20.0416 13.5667 20.0416H23.4333C26.0236 20.0416 27.3187 20.0416 28.308 20.5457C29.1783 20.9892 29.8858 21.6967 30.3292 22.5669C30.8333 23.5563 30.8333 24.8514 30.8333 27.4416V27.75M6.16666 27.75C4.46378 27.75 3.08333 29.1304 3.08333 30.8333C3.08333 32.5362 4.46378 33.9166 6.16666 33.9166C7.86954 33.9166 9.24999 32.5362 9.24999 30.8333C9.24999 29.1304 7.86954 27.75 6.16666 27.75ZM30.8333 27.75C29.1304 27.75 27.75 29.1304 27.75 30.8333C27.75 32.5362 29.1304 33.9166 30.8333 33.9166C32.5362 33.9166 33.9167 32.5362 33.9167 30.8333C33.9167 29.1304 32.5362 27.75 30.8333 27.75ZM18.5 27.75C16.7971 27.75 15.4167 29.1304 15.4167 30.8333C15.4167 32.5362 16.7971 33.9166 18.5 33.9166C20.2029 33.9166 21.5833 32.5362 21.5833 30.8333C21.5833 29.1304 20.2029 27.75 18.5 27.75ZM18.5 27.75V12.3333M9.25 12.3333H27.75C29.1866 12.3333 29.905 12.3333 30.4716 12.0986C31.2271 11.7857 31.8273 11.1854 32.1403 10.4299C32.375 9.86329 32.375 9.14497 32.375 7.70831C32.375 6.27166 32.375 5.55333 32.1403 4.98671C31.8273 4.2312 31.2271 3.63096 30.4716 3.31802C29.905 3.08331 29.1866 3.08331 27.75 3.08331H9.24999C7.81334 3.08331 7.09502 3.08331 6.52839 3.31802C5.77288 3.63096 5.17264 4.2312 4.8597 4.98671C4.62499 5.55333 4.62499 6.27166 4.62499 7.70831C4.62499 9.14497 4.62499 9.86329 4.8597 10.4299C5.17264 11.1854 5.77288 11.7857 6.52839 12.0986C7.09502 12.3333 7.81334 12.3333 9.25 12.3333Z" stroke="#2361A9" stroke-width="2" stroke-linecap="round" stroke-linejoin="round"/>
</svg>
